# xmcd
#
# Track frame offsets:
#	150
#	11612
#	22532
#	34774
#	48588
#	63401
#	76828
#	90909
#	104059
#	116457
#
# Disc length: 1711 seconds
#
# Revision: 0
# Processed by: cddbd v1.5.2PL0 Copyright (c) Steve Scherf et al.
# Submitted via: audiograbber 1.83.01
#
DISCID=6b06ad0a
DTITLE=Cheryl Gabriel - Solid Gold Classics
DYEAR=2002
DGENRE=Country
TTITLE0=Sweet Dreams
TTITLE1=Blue
TTITLE2=Cowboy's Sweetheart
TTITLE3=Keep Telling Me Lies
TTITLE4=Unforgettable
TTITLE5=Undercover Lovers
TTITLE6=Tennessee Waltz
TTITLE7=I Fall To Pieces
TTITLE8=Crazy
TTITLE9=Turn Right, Then Go Straight
EXTD=
EXTT0=
EXTT1=
EXTT2=
EXTT3=
EXTT4=
EXTT5=
EXTT6=
EXTT7=
EXTT8=
EXTT9=
PLAYORDER=
